<svg xmlns="http://www.w3.org/2000/svg" version="1.1" xmlns:xlink="http://www.w3.org/1999/xlink" xmlns:svgjs="http://svgjs.com/svgjs" width="1450" height="578" preserveAspectRatio="none" viewBox="0 0 1450 578"><g mask="url(&quot;#SvgjsMask1257&quot;)" fill="none"><rect width="1450" height="578" x="0" y="0" fill="rgba(216, 229, 237, 1)"></rect><path d="M0,436.948C82.199,433.073,155.046,393.195,226.797,352.903C302.754,310.249,391.681,274.632,429.118,195.972C466.687,117.034,442.188,24.53,423.751,-60.926C406.378,-141.449,371.699,-213.925,325.907,-282.4C274.449,-359.348,230.952,-458.022,141.722,-482.661C52.531,-507.29,-30.627,-432.694,-118.993,-405.252C-205.649,-378.341,-318.363,-395.613,-372.668,-322.919C-427.296,-249.793,-374.219,-145.794,-380.826,-54.755C-386.824,27.895,-435.327,108.296,-409.681,187.095C-383.094,268.783,-314.312,330.226,-240.97,374.956C-168.697,419.033,-84.559,440.935,0,436.948" fill="#c9dbe6"></path><path d="M1450 1151.176C1573.306 1144.783 1701.049 1195.03 1812.811 1142.545 1930.085 1087.471 2014.938 978.432 2068.779 860.587 2122.625 742.731 2161.58 603.148 2114.379 482.477 2068.744 365.81100000000004 1920.269 335.517 1829.587 249.086 1750.568 173.772 1715.287 56.488000000000056 1617.191 8.600000000000023 1511.764-42.86699999999996 1386.775-53.70100000000002 1273.747-22.263000000000034 1159.961 9.385999999999967 1063.8029999999999 87.49900000000002 993.182 182.16500000000002 925.556 272.816 909.799 386.317 886.402 496.967 861.348 615.453 821.586 733.931 851.708 851.231 884.846 980.2760000000001 943.075 1121.752 1062.1779999999999 1181.463 1180.49 1240.777 1317.83 1158.029 1450 1151.176" fill="#e8eff4"></path></g><defs><mask id="SvgjsMask1257"><rect width="1450" height="578" fill="#ffffff"></rect></mask></defs></svg>